# xmcd CD database file
#
# Track frame offsets:
#	150
#	10720
#	23947
#	34997
#	47095
#	60027
#	73117
#	86595
#	98897
#	108200
#	119745
#	130835
#	140595
#	150102
#	161460
#	173842
#	185300
#	197530
#	207577
#	220925
#
# Disc length: 3105 seconds
#
# Revision: 0
# Processed by: cddbd v1.5.2PL0 Copyright (c) Steve Scherf et al.
# Submitted via: CDex 1.99.1
#
DISCID=0d0c1f14
DTITLE=Various Artist - N.Y. Wild Guitars
DYEAR=1900
DGENRE=Blues
TTITLE0=Mighty Joe Young -  Why Baby
TTITLE1=Mighty Joe Young - Empty Arms
TTITLE2=Wilbert Harrison - Kansas City
TTITLE3=WIld Jimmy Spruill - Kansas City March
TTITLE4=Wild Jimmy Spruill - Hard Grind
TTITLE5=Tarheel Slim - Number 9 Train
TTITLE6=Tarheel Slim - Wildcat Tamer
TTITLE7=Titus Tee Turner - I Love You Baby
TTITLE8=Wild Jimmy Spruill - Scratchin'
TTITLE9=Wild Jimmy Spruill - Cut And Dried
TTITLE10=Riff Ruffin - Hoop And Holler
TTITLE11=Riff Ruffin - All My Life
TTITLE12=Charles Lucas Combo - Walkin'
TTITLE13=B. Brown - Hardworking Man
TTITLE14=Sammy Taylor - Ain't That Some Shame
TTITLE15=Billy Lewis - Heart Trouble
TTITLE16=Wild Jimmy Spruill - Slow Draggin'
TTITLE17=Wild Jimmy Spruill - Scratch 'N' Twist
TTITLE18=Hal Paige And The Whalers - After Hours Blues
TTITLE19=Tarheel Slim - Too Much Competition
EXTD=
EXTT0=
EXTT1=
EXTT2=
EXTT3=
EXTT4=
EXTT5=
EXTT6=
EXTT7=
EXTT8=
EXTT9=
EXTT10=
EXTT11=
EXTT12=
EXTT13=
EXTT14=
EXTT15=
EXTT16=
EXTT17=
EXTT18=
EXTT19=
PLAYORDER=
